# xmcd
#
# Track frame offsets:
#	150
#	18297
#	37772
#	44530
#	51322
#
# Disc length: 771 seconds
#
# Revision: 1
# Processed by: cddbd v1.4PL0 Copyright (c) Steve Scherf et al.
# Submitted via: EasyCDDAExtractor 6.2.0.3
#
DISCID=36030105
DTITLE=ATL - Calling All Girls
DYEAR=2003
DGENRE=R&B
TTITLE0=Calling All Girls (Radio Edit)
TTITLE1=Calling All Girls (Remix ft T.I.)
TTITLE2=I Wish (Snippet)
TTITLE3=Holla At Ya Boy (Snippet)
TTITLE4=The One (Snippet)
EXTD=
EXTT0=
EXTT1=
EXTT2=
EXTT3=
EXTT4=
PLAYORDER=
